<svg width="96" height="96" xmlns="http://www.w3.org/2000/svg" xmlns:xlink="http://www.w3.org/1999/xlink" overflow="hidden"><defs><clipPath id="clip0"><rect x="0" y="0" width="96" height="96"/></clipPath></defs><g clip-path="url(#clip0)"><path d="M73 47C71.3 47 70 45.7 70 44 70 42.3 71.3 41 73 41 74.7 41 76 42.3 76 44 76 45.7 74.7 47 73 47ZM67 53C65.3 53 64 51.7 64 50 64 48.3 65.3 47 67 47 68.7 47 70 48.3 70 50 70 51.7 68.7 53 67 53ZM61 47C59.3 47 58 45.7 58 44 58 42.3 59.3 41 61 41 62.7 41 64 42.3 64 44 64 45.7 62.7 47 61 47ZM67 35C68.7 35 70 36.3 70 38 70 39.7 68.7 41 67 41 65.3 41 64 39.7 64 38 64 36.3 65.3 35 67 35ZM35 46 31 46 31 50C31 51.1 30.1 52 29 52 27.9 52 27 51.1 27 50L27 46 23 46C21.9 46 21 45.1 21 44 21 42.9 21.9 42 23 42L27 42 27 38C27 36.9 27.9 36 29 36 30.1 36 31 36.9 31 38L31 42 35 42C36.1 42 37 42.9 37 44 37 45.1 36.1 46 35 46ZM71 20C59.2 20 65.2 26 48 26 30.8 26 36.8 20 25 20 12.4 20-3.6 76 13 76 28.3 76 22.5 62 48 62 73.5 62 67.7 76 83 76 99.6 76 83.6 20 71 20Z"/></g></svg>